<svg preserveAspectRatio="none" viewBox="30.96 59.16 16.8 101.4" xmlns="http://www.w3.org/2000/svg" version="1.0" style="max-height: 500px" width="16.8" height="101.4">
<metadata>
Created by potrace 1.10, written by Peter Selinger 2001-2011
</metadata>
<g stroke="none" fill="#000000" transform="translate(-10.000000,60.000000) scale(.20000,.20000)">
  <path d="M 217.86 249.42 C 220.845 251.22 227.339 258.76 234.163 268.641 C 240.987 278.521 247.801 290.823 250.747 302.302 C 255.142 319.414 251.46 345.297 247.498 371.257 C 243.538 397.22 239.964 423.145 242.575 440.676 C 247.172 471.539 268.805 493.446 268.768 493.418 C 268.732 493.39 267.87 494.261 267.34 494.542 C 266.752 494.855 235.865 468.781 229.3 431.996 C 224.775 413.656 228.926 386.248 233.245 359.388 C 237.563 332.531 242.052 306.225 238.2 290.092 C 235.979 280.778 229.979 270.568 224.536 262.682 C 219.093 254.798 214.391 249.984 214.36 249.551 C 214.331 249.118 219.379 244.239 224.822 236.356 C 230.267 228.469 236.265 218.259 238.487 208.945 C 242.338 192.812 237.85 166.506 233.532 139.649 C 229.212 112.79 225.062 85.382 229.587 67.042 C 236.152 30.256 267.038 4.182 267.627 4.495 C 268.156 4.776 269.02 5.649 269.055 5.619 C 269.09 5.591 247.458 27.498 242.863 58.361 C 240.252 75.892 243.825 101.817 247.786 127.779 C 251.746 153.741 255.428 179.625 251.035 196.734 C 248.088 208.214 241.273 220.517 234.449 230.397 C 227.624 240.278 220.845 247.618 217.86 249.42 Z"/>
</g>
</svg>